<svg width="1200" height="700" viewBox="0 0 1200 700" xmlns="http://www.w3.org/2000/svg">

  <!-- BACKGROUND (Resonerend, niet levend) -->
  <rect width="1200" height="700" fill="#0d0f14"/>

  <!-- AXIOMA 0/37 CORE -->
  <circle cx="350" cy="350" r="60" fill="#111822" stroke="#00f3ff" stroke-width="3" />
  <text x="350" y="355" fill="#00f3ff" font-size="22" text-anchor="middle">0/37</text>

  <!-- MODULO-73 PULSE RING -->
  <circle cx="350" cy="350" r="130" fill="none" stroke="#00b4ff" stroke-width="2" stroke-dasharray="10 5">
    <!-- animatie komt in HTML-versie -->
  </circle>

  <!-- OUTER GRID-RING (VISIBLE MATRIX RING) -->
  <circle cx="350" cy="350" r="190" fill="none" stroke="#0496ff" stroke-width="1.5" opacity="0.45"/>

  <!-- NINE CLUSTER NODES (V3 NAVIGATION-FIELD) -->
  <!-- boven -->
  <circle cx="350" cy="145" r="35" fill="#00e5ff"/><text x="350" y="150" text-anchor="middle" fill="#001015" font-size="14">C1</text>
  <!-- midden links -->
  <circle cx="145" cy="350" r="35" fill="#00e5ff"/><text x="145" y="355" text-anchor="middle" fill="#001015" font-size="14">C2</text>
  <!-- midden rechts -->
  <circle cx="555" cy="350" r="35" fill="#00e5ff"/><text x="555" y="355" text-anchor="middle" fill="#001015" font-size="14">C3</text>
  <!-- onder -->
  <circle cx="350" cy="555" r="35" fill="#00e5ff"/><text x="350" y="560" text-anchor="middle" fill="#001015" font-size="14">C4</text>

  <!-- diagonalen -->
  <circle cx="500" cy="200" r="35" fill="#00e5ff" opacity="0.92"/><text x="500" y="205" fill="#000914" font-size="14" text-anchor="middle">C5</text>
  <circle cx="200" cy="200" r="35" fill="#00e5ff" opacity="0.92"/><text x="200" y="205" fill="#000914" font-size="14" text-anchor="middle">C6</text>
  <circle cx="200" cy="500" r="35" fill="#00e5ff" opacity="0.92"/><text x="200" y="505" fill="#000914" font-size="14" text-anchor="middle">C7</text>
  <circle cx="500" cy="500" r="35" fill="#00e5ff" opacity="0.92"/><text x="500" y="505" fill="#000914" font-size="14" text-anchor="middle">C8</text>

  <!-- laatste node sluit veld (Autonoom-Circuit) -->
  <circle cx="350" cy="350" r="260" fill="none" stroke="#00f3ff" stroke-width="2.3" stroke-dasharray="4 6" opacity="0.65"/>
  <text x="350" y="90" fill="#00f3ff" font-size="16" text-anchor="middle">C9 — Autonomous</text>

  <!-- RIGHT PANEL — AUDIT FEED -->
  <rect x="720" y="40" width="430" height="620" fill="#111822" stroke="#00eaff" stroke-width="2"/>
  <text x="935" y="75" font-size="22" text-anchor="middle" fill="#00eaff">Audit-Feed</text>
  <text x="760" y="120" fill="#00baff" font-size="14">status.json →</text>
  <text x="760" y="150" fill="#00baff" font-size="14">pulse: MOD-73</text>
  <text x="760" y="180" fill="#00baff" font-size="14">resonance.log → echo</text>

  <!-- HUMANITAIR FILTER-LABEL -->
  <text x="350" y="25" fill="#ffd300" font-size="14" text-anchor="middle">Humanitair — Axioma</text>

</svg>
